<svg xmlns="http://www.w3.org/2000/svg" viewBox="0 0 1000 1400" role="img" aria-labelledby="title desc">
  <title id="title">Synthetic saved style signals portrait</title>
  <desc id="desc">A faceless fashion silhouette in a warm natural Mediterranean setting.</desc>
  <defs>
    <linearGradient id="sky" x1="0" y1="0" x2="0" y2="1"><stop stop-color="#ead8bb"/><stop offset="1" stop-color="#c99f73"/></linearGradient>
    <linearGradient id="coat" x1="0" y1="0" x2="1" y2="1"><stop stop-color="#d2aa76"/><stop offset="1" stop-color="#8b623e"/></linearGradient>
  </defs>
  <rect width="1000" height="1400" fill="url(#sky)"/>
  <circle cx="805" cy="230" r="120" fill="#f7e7bd" opacity=".7"/>
  <path d="M0 750c170-100 330-60 470-120 170-72 270-190 530-120v890H0z" fill="#887960"/>
  <path d="M0 890c240-120 440-50 620-140 140-70 230-80 380-30v680H0z" fill="#c2ad89"/>
  <path d="M128 430h255v330H128z" fill="#d8c2a1"/><path d="M168 470h175v290H168z" fill="#6f5b48"/>
  <circle cx="620" cy="455" r="74" fill="#8a684b"/>
  <path d="M594 526c-90 83-132 258-112 582h278c15-295-28-498-114-582z" fill="url(#coat)"/>
  <path d="M500 700 390 980l78 28 115-241m154-67 118 280-78 28-120-241" fill="none" stroke="#a27a51" stroke-width="54"/>
  <path d="M566 602h108l-18 180H584z" fill="#ede2cf"/>
  <path d="M548 1108h84l-25 220h-98zm120 0h84l45 220h-98z" fill="#4d443b"/>
  <text x="60" y="88" fill="#554637" font-family="Georgia, serif" font-size="34" letter-spacing="4">SAVED STYLE SIGNALS</text>
  <text x="62" y="132" fill="#6f5b48" font-family="Arial, sans-serif" font-size="20" letter-spacing="3">SYNTHETIC VISUAL FIXTURE</text>
</svg>
